<svg xmlns="http://www.w3.org/2000/svg" width="44" height="29" fill="none" viewBox="0 0 44 29">

    <style>
    #a, #b {
        fill: #160016;
    }

    @media (prefers-color-scheme: dark) {
        #a, #b {
            fill: #edf2f4;
        }
    }
  </style>

  <g clip-path="url(#a)">
    <path id="b" d="M34.107.79H23.492v27.384h6.61v-8.613h4.005c6.21 0 9.816-3.948 9.816-9.385 0-5.437-3.605-9.386-9.816-9.386Zm-.686 12.962h-3.319V6.6h3.32c2.403 0 3.776 1.316 3.776 3.577 0 2.26-1.373 3.576-3.777 3.576Zm-21.203-2.06c-2.031-.573-3.32-1-3.95-1.401-.513-.343-.828-.831-.828-1.403 0-1.288 1.03-2.26 3.347-2.26 2.203 0 3.377.944 3.377 2.345H20.8c0-5.122-4.291-8.527-9.7-8.527-3.203 0-5.665.688-7.61 2.347C1.773 4.253.743 6.34.743 8.945c0 2.261.686 3.892 1.745 5.036 1.001 1.087 3.033 2.375 6.209 3.234 2.29.63 3.921 1.116 4.665 1.602.772.486.973.916.973 1.488 0 1.23-1.23 2.06-3.692 2.06-2.29 0-3.52-.859-3.605-2.347H.314c0 5.18 4.235 8.498 10.33 8.498 5.923 0 10.386-3.663 10.386-8.327 0-1.717-.314-3.204-1.545-4.72-1.087-1.373-3.26-2.603-7.267-3.777Z"/>
  </g>
  <defs>
    <clipPath id="a">
      <path d="M0 0h44v28.735H0z"/>
    </clipPath>
  </defs>
</svg>
